<?xml version="1.0" standalone="no"?>
<!DOCTYPE svg PUBLIC "-//W3C//DTD SVG 20010904//EN"
 "http://www.w3.org/TR/2001/REC-SVG-20010904/DTD/svg10.dtd">
<svg version="1.0" xmlns="http://www.w3.org/2000/svg"
 width="720.000000pt" height="720.000000pt" viewBox="0 0 720.000000 720.000000"
 preserveAspectRatio="xMidYMid meet">
<metadata>
Created by potrace 1.14, written by Peter Selinger 2001-2017
</metadata>
<g transform="translate(0.000000,720.000000) scale(0.100000,-0.100000)"
fill="#000000" stroke="none">
<path d="M2248 5815 c-3 -3 -57 -7 -119 -8 -63 -1 -120 -6 -126 -10 -8 -5 -13
-3 -13 3 0 6 -5 8 -12 3 -7 -4 -22 -8 -33 -9 -11 0 -39 -4 -62 -8 -24 -4 -45
-8 -48 -7 -2 0 -26 -6 -52 -14 -26 -8 -49 -12 -51 -10 -3 2 -14 -1 -26 -7 -11
-6 -32 -12 -46 -14 -14 -1 -26 -3 -27 -4 -2 -1 -7 -4 -13 -5 -5 -1 -12 -4 -15
-5 -8 -4 -24 -7 -41 -9 -9 0 -12 -6 -8 -13 4 -6 3 -8 -4 -4 -6 3 -23 1 -39 -5
-15 -7 -37 -14 -48 -16 -11 -2 -24 -8 -29 -13 -6 -6 -18 -10 -28 -10 -10 0
-18 -4 -18 -10 0 -5 -3 -9 -7 -8 -5 1 -18 -3 -30 -10 -13 -7 -23 -10 -23 -6 0
4 -9 -1 -19 -10 -11 -10 -26 -18 -34 -20 -8 -1 -22 -8 -30 -15 -9 -7 -22 -14
-30 -15 -7 -1 -26 -12 -41 -24 -16 -12 -32 -19 -37 -16 -5 3 -9 2 -9 -3 0 -4
-27 -23 -60 -42 -32 -19 -57 -38 -54 -43 3 -4 -3 -8 -13 -8 -21 -1 -63 -33
-63 -50 0 -6 -4 -9 -8 -6 -8 5 -18 -3 -105 -77 -67 -57 -142 -132 -140 -139 2
-5 -4 -8 -12 -8 -8 0 -15 -3 -15 -8 0 -4 -11 -19 -24 -34 -14 -14 -22 -29 -19
-32 4 -3 -1 -6 -10 -6 -9 0 -17 -4 -17 -9 0 -5 -13 -23 -29 -40 -16 -17 -27
-31 -25 -31 3 0 0 -6 -6 -12 -6 -7 -29 -38 -51 -68 -21 -30 -44 -61 -49 -67
-6 -7 -7 -13 -3 -13 4 0 4 -4 -2 -8 -14 -10 -33 -41 -46 -74 -6 -16 -14 -28
-19 -28 -7 0 -18 -29 -18 -47 0 -3 -4 -9 -9 -12 -12 -8 -76 -142 -76 -158 0
-7 -4 -13 -9 -13 -4 0 -8 -6 -8 -12 0 -7 -6 -25 -14 -39 -11 -22 -17 -39 -31
-91 -2 -5 -3 -9 -5 -10 -2 -4 -11 -41 -12 -55 -1 -7 -5 -13 -10 -13 -5 0 -7
-4 -4 -9 4 -5 2 -21 -4 -35 -5 -15 -12 -38 -15 -51 -3 -14 -8 -37 -11 -52 -3
-16 -7 -32 -8 -38 -1 -5 -6 -16 -10 -24 -7 -10 -6 -12 4 -6 9 6 11 4 4 -6 -4
-8 -9 -25 -10 -39 -1 -14 -2 -25 -4 -25 -4 0 -9 -68 -15 -195 -3 -69 -7 -133
-9 -142 -2 -10 -1 -18 2 -18 4 0 7 -48 7 -108 -1 -59 3 -113 8 -119 5 -7 7
-19 4 -28 -4 -8 -2 -17 2 -19 5 -3 6 -18 3 -32 -4 -21 -2 -25 9 -19 11 7 12 6
2 -7 -7 -8 -10 -17 -7 -20 3 -4 8 -21 11 -40 3 -18 9 -40 14 -49 4 -9 6 -19 2
-22 -3 -4 0 -14 8 -24 9 -11 10 -14 1 -9 -6 4 -12 2 -12 -3 0 -6 5 -11 11 -11
5 0 7 -4 4 -10 -3 -5 -2 -10 2 -10 8 0 13 -23 16 -67 0 -7 3 -13 7 -13 4 0 7
-7 8 -15 1 -8 3 -22 4 -30 1 -8 6 -15 11 -15 6 0 7 -3 4 -7 -4 -3 1 -15 10
-26 10 -12 12 -17 4 -12 -10 5 -12 4 -7 -6 3 -8 9 -22 12 -31 4 -10 10 -18 15
-18 4 0 6 -9 4 -20 -2 -11 1 -20 6 -20 6 0 7 -4 4 -10 -3 -5 -1 -10 5 -10 6 0
8 -4 5 -10 -3 -5 -1 -10 5 -10 7 0 10 -7 6 -15 -3 -8 -1 -15 4 -15 6 0 10 -7
10 -15 0 -8 5 -15 12 -15 6 0 9 -3 5 -6 -8 -9 42 -104 56 -104 8 0 8 -3 -1 -9
-11 -7 -10 -9 3 -15 9 -3 13 -10 10 -16 -3 -5 -1 -10 4 -10 6 0 11 -7 11 -15
0 -7 8 -19 18 -24 9 -6 13 -11 9 -11 -5 0 12 -29 38 -65 25 -36 42 -65 38 -65
-4 0 0 -5 10 -11 9 -6 15 -15 11 -20 -3 -5 -2 -8 3 -7 4 2 9 -1 11 -7 2 -5 10
-14 18 -18 8 -5 11 -13 8 -19 -4 -6 -3 -9 2 -6 5 3 15 0 22 -8 7 -8 9 -14 5
-14 -4 0 2 -10 14 -22 13 -13 34 -35 48 -51 14 -15 31 -27 38 -27 8 0 8 -3 -1
-9 -10 -6 -8 -10 8 -14 12 -3 19 -10 15 -16 -3 -6 -1 -11 4 -11 6 0 31 -20 57
-45 25 -25 50 -43 55 -39 5 3 8 0 7 -8 -2 -7 3 -12 10 -11 6 2 12 -2 12 -8 0
-16 29 -41 40 -34 6 3 10 -4 10 -16 0 -18 2 -20 16 -9 12 11 15 11 12 0 -2 -7
7 -19 19 -25 13 -7 20 -15 16 -18 -6 -7 21 -11 41 -8 5 1 4 -5 -3 -13 -11 -13
-10 -15 8 -11 14 2 22 -3 27 -17 5 -16 8 -18 15 -7 7 11 9 10 9 -4 0 -10 5
-15 10 -12 6 3 10 1 10 -5 0 -6 4 -9 9 -5 6 3 14 -3 20 -12 5 -10 12 -17 15
-15 15 6 26 1 20 -10 -5 -8 -2 -9 9 -5 10 3 17 2 17 -3 0 -5 11 -12 25 -16 14
-3 25 -11 25 -16 0 -6 7 -8 15 -4 9 3 15 0 15 -10 0 -8 5 -12 10 -9 6 3 10 1
10 -5 0 -7 7 -10 15 -6 8 3 15 1 15 -5 0 -6 7 -9 15 -5 8 3 21 -4 30 -17 9
-13 15 -16 15 -7 0 10 4 8 13 -5 9 -11 19 -15 27 -10 9 5 11 4 6 -3 -4 -7 -3
-12 3 -12 5 0 12 6 14 13 3 7 6 4 6 -7 1 -12 6 -16 17 -12 8 3 13 2 10 -3 -3
-5 1 -12 10 -15 8 -3 13 -2 10 2 -3 5 1 9 9 9 8 0 12 -4 9 -9 -5 -8 11 -12 30
-9 5 1 5 -6 2 -16 -6 -16 -6 -16 13 1 19 17 20 17 31 -3 6 -12 15 -19 19 -17
4 3 31 -4 60 -15 36 -13 50 -15 46 -7 -4 7 1 4 9 -6 9 -11 16 -15 16 -10 0 6
7 11 15 11 10 0 14 -6 10 -16 -5 -12 -3 -13 6 -4 6 6 18 9 26 6 8 -3 19 0 25
8 6 10 7 6 2 -11 -6 -22 -5 -23 10 -11 13 11 16 11 16 0 0 -12 2 -12 9 0 7 11
10 11 15 0 5 -11 7 -12 12 -1 5 10 10 9 21 -5 9 -11 12 -12 8 -3 -5 11 -3 11
7 -2 10 -12 19 -13 31 -7 11 7 17 6 17 -1 0 -7 6 -7 22 1 19 10 20 9 14 -7 -5
-14 -4 -16 4 -8 6 6 30 8 60 4 27 -3 56 -3 64 2 9 5 16 2 20 -8 4 -12 10 -13
26 -4 15 8 20 8 20 -1 0 -9 3 -9 14 0 10 9 16 9 21 1 5 -8 11 -8 21 1 9 7 14
8 14 1 0 -12 18 -11 39 2 9 6 12 5 8 0 -3 -5 3 -10 14 -10 10 0 19 4 19 9 0 5
7 7 15 3 8 -3 15 -1 15 5 0 6 5 7 11 4 16 -11 69 -12 69 -3 0 5 10 4 21 -3 17
-9 20 -8 14 2 -6 9 -3 11 8 6 9 -3 18 -1 21 6 3 9 5 8 5 -1 1 -8 6 -10 14 -5
6 4 23 9 37 9 14 1 31 2 38 3 7 1 10 5 7 11 -3 6 1 7 9 4 9 -3 13 -10 10 -15
-8 -14 3 -10 20 7 12 12 16 12 16 2 0 -10 2 -10 8 -1 4 7 23 13 41 15 18 1 35
6 37 10 3 4 12 4 21 1 9 -4 14 -2 10 3 -3 6 6 9 21 9 15 -1 33 3 39 8 7 5 19
7 28 4 8 -4 17 -1 21 5 5 7 2 8 -7 3 -8 -5 -11 -4 -6 0 13 15 49 17 42 3 -4
-7 0 -5 8 5 9 10 18 18 21 18 27 -3 36 0 30 12 -5 7 0 6 11 -3 11 -9 16 -10
11 -3 -4 7 -4 13 1 14 32 3 59 11 61 19 2 6 12 10 22 10 10 0 22 5 25 10 4 6
11 8 16 5 5 -4 9 -2 9 3 0 6 7 13 16 16 9 4 13 2 8 -5 -3 -6 5 -3 20 6 14 10
26 22 26 27 0 6 8 4 17 -3 11 -10 14 -10 9 -1 -6 10 5 17 19 10 2 -2 11 6 20
17 9 11 13 13 9 5 -4 -8 3 -5 15 8 12 12 26 20 31 17 4 -3 11 2 14 11 3 8 10
12 16 9 5 -3 10 -1 10 5 0 6 5 8 10 5 6 -3 10 -1 10 6 0 7 3 10 6 6 6 -6 17 1
54 35 10 9 21 14 24 11 3 -3 8 2 12 11 3 9 10 13 15 10 5 -3 12 2 15 10 3 9
12 16 20 16 8 0 13 3 13 7 -3 20 2 26 11 13 8 -13 10 -13 10 2 0 9 5 20 12 24
7 4 8 3 4 -4 -7 -11 14 -17 39 -12 5 1 7 -1 4 -5 -10 -9 36 -55 55 -55 9 0 19
-7 22 -15 4 -8 10 -12 15 -9 5 3 9 0 9 -5 0 -6 7 -11 15 -11 8 0 15 -4 15 -10
0 -5 7 -10 15 -10 8 0 15 -4 15 -10 0 -5 9 -10 21 -10 11 0 18 -3 15 -8 -2 -4
7 -12 20 -19 18 -8 23 -8 18 0 -3 7 2 3 10 -7 9 -11 16 -16 16 -12 0 4 7 0 16
-8 8 -9 20 -14 25 -11 5 4 9 1 9 -4 0 -6 10 -11 23 -11 18 0 19 -2 7 -11 -12
-9 -11 -10 8 -6 12 3 22 1 22 -5 0 -6 6 -8 14 -5 8 3 17 -1 20 -9 3 -9 10 -12
16 -9 5 3 10 1 10 -4 0 -6 3 -10 8 -10 21 4 32 -2 26 -14 -5 -7 0 -6 11 3 11
9 16 10 11 3 -5 -9 1 -13 18 -13 14 0 26 -4 26 -8 0 -5 7 -9 15 -10 8 -1 22
-3 30 -4 8 -1 15 -5 15 -9 0 -4 7 -10 16 -13 8 -3 12 -2 9 4 -3 6 1 7 9 4 9
-3 16 -11 16 -17 0 -8 3 -8 11 0 9 9 15 8 25 -2 8 -8 23 -12 34 -10 14 3 20
-2 20 -13 0 -12 3 -13 8 -5 5 7 13 9 21 3 8 -4 20 -6 28 -3 7 3 13 1 13 -4 0
-5 10 -9 23 -8 12 2 33 -4 46 -12 13 -8 20 -10 17 -4 -4 6 -2 11 3 11 6 0 11
-6 11 -12 0 -9 4 -8 10 2 7 11 10 11 10 2 0 -10 5 -10 21 -1 15 8 19 8 15 0
-7 -11 5 -15 38 -11 13 1 16 -2 10 -12 -4 -7 3 -4 15 6 20 18 21 18 15 2 -6
-16 -4 -17 14 -7 17 9 22 9 22 0 0 -7 3 -10 6 -7 3 4 18 2 34 -2 20 -6 30 -5
34 3 3 8 5 8 5 -1 1 -9 6 -10 20 -2 14 7 23 6 33 -3 17 -15 42 -21 33 -7 -3 5
-1 10 4 10 6 0 11 -4 11 -8 0 -5 7 -9 15 -9 8 0 15 5 15 11 0 7 3 7 8 1 11
-15 32 -17 32 -2 0 8 3 8 9 -2 8 -12 12 -12 25 -2 13 11 16 11 16 0 0 -11 2
-11 10 1 9 13 10 13 10 0 0 -12 2 -13 9 -1 5 7 14 10 20 7 6 -4 11 -1 11 6 1
8 6 6 15 -6 13 -18 15 -18 15 -3 0 14 4 16 19 7 27 -14 34 -13 27 6 -5 13 -3
14 6 7 16 -12 60 -15 53 -4 -5 9 38 6 54 -3 5 -4 14 1 19 10 7 12 11 13 17 5
5 -9 13 -7 28 6 11 10 17 13 14 7 -8 -14 25 -14 34 0 4 5 24 10 45 12 20 2 41
9 44 15 6 8 9 7 13 -2 4 -9 6 -10 6 -2 1 7 8 10 16 7 8 -4 15 -1 15 5 0 6 7 8
15 4 9 -3 23 3 31 13 9 11 13 13 9 7 -9 -18 5 -16 28 4 11 10 17 12 13 6 -4
-7 -2 -13 3 -13 6 0 11 5 11 11 0 5 4 8 9 4 5 -3 12 -1 16 5 4 6 11 8 16 5 5
-4 9 -2 9 4 0 6 7 8 15 5 8 -4 15 -1 15 6 0 6 4 9 9 5 5 -3 17 2 25 11 12 11
16 12 16 2 1 -9 5 -7 14 5 15 19 31 23 20 4 -5 -8 -3 -8 9 2 9 7 15 17 12 21
-2 4 7 6 20 4 14 -1 25 2 25 7 0 5 7 9 16 9 9 0 12 5 8 12 -5 8 -2 9 9 5 10
-4 20 0 26 11 6 9 11 12 11 6 0 -6 6 -11 14 -11 8 0 12 6 9 14 -3 8 -2 13 3
12 22 -4 35 2 28 13 -4 6 -3 8 4 4 6 -3 16 0 24 7 7 8 21 13 30 11 11 -1 15 3
11 14 -4 9 -2 13 4 9 6 -4 16 0 23 8 7 8 16 12 21 9 5 -3 9 0 9 5 0 6 5 11 11
11 7 0 18 8 26 18 10 11 12 12 8 2 -4 -8 3 -4 15 10 12 14 25 25 29 25 3 0 5
4 3 8 -1 5 2 6 8 2 5 -3 13 0 16 9 3 9 12 12 21 9 11 -4 14 -2 9 5 -4 7 -1 12
7 12 8 0 18 7 21 16 3 8 10 12 16 9 5 -3 10 1 10 10 0 9 4 14 9 11 5 -3 16 5
25 19 9 14 23 25 31 25 9 0 12 6 8 17 -5 12 -2 15 10 10 9 -3 17 -2 17 4 0 15
26 39 34 32 3 -4 6 3 6 15 0 12 3 21 8 20 4 -2 33 23 65 55 33 31 56 57 53 57
-4 0 10 16 30 35 19 19 32 35 27 35 -4 0 0 5 10 11 9 5 17 16 17 24 0 7 11 23
26 34 14 11 25 22 25 25 -2 21 0 26 11 20 8 -5 9 -2 5 9 -4 11 -1 17 9 17 8 0
12 4 9 10 -3 6 -1 10 5 10 6 0 9 4 6 9 -4 5 -3 11 1 13 11 4 53 65 53 76 0 5
7 15 15 22 8 7 12 16 9 21 -3 5 0 9 6 9 6 0 9 4 6 9 -3 4 3 19 14 31 11 13 20
32 20 42 0 10 6 21 14 24 8 3 12 12 9 20 -3 8 0 14 7 14 6 0 8 5 5 10 -3 6 -1
10 5 10 7 0 10 7 6 15 -3 8 -1 15 4 15 6 0 10 9 10 20 0 11 5 20 11 20 5 0 7
5 4 10 -3 6 -1 10 5 10 6 0 8 5 5 10 -4 6 -2 17 4 24 9 11 18 40 20 69 1 5 5
6 10 2 6 -3 8 4 6 15 -2 11 2 20 8 20 7 0 6 4 -3 10 -8 5 -10 10 -4 10 6 0 11
6 12 13 2 23 8 42 17 57 5 8 8 23 6 34 -1 10 3 22 10 27 10 6 10 11 0 22 -8
10 -8 16 -1 19 6 2 11 14 12 28 1 14 6 31 12 39 9 12 8 13 -4 6 -11 -6 -10 -3
2 11 14 16 15 23 6 32 -9 9 -9 12 1 12 11 0 11 3 0 17 -12 14 -12 16 0 8 11
-6 13 -4 8 7 -3 9 -3 19 1 22 10 11 8 76 -3 76 -5 0 -4 4 4 9 13 8 13 12 0 27
-9 12 -10 15 -1 10 16 -9 14 101 -2 123 -8 11 -8 13 2 7 8 -5 12 -1 12 11 0
11 -6 25 -12 32 -7 8 -8 11 -2 8 7 -4 11 5 11 23 0 17 -5 27 -10 23 -6 -3 -7
-1 -3 5 11 18 16 52 7 52 -9 0 -8 37 2 46 3 3 -2 18 -11 33 -14 22 -15 24 -1
13 14 -11 16 -9 11 13 -2 15 -9 22 -16 18 -6 -4 -5 1 3 10 11 14 11 17 0 17
-11 0 -11 2 1 10 12 8 12 10 -4 16 -14 5 -15 9 -4 15 11 7 10 11 -1 18 -13 8
-13 12 0 27 9 11 9 15 2 10 -10 -5 -13 4 -13 34 0 23 -3 39 -8 36 -4 -2 -7 15
-7 39 0 24 -3 41 -7 39 -9 -6 -21 34 -13 46 3 5 2 10 -4 10 -5 0 -8 9 -6 20 2
11 -1 20 -7 20 -5 0 -8 6 -5 14 3 8 3 17 -1 20 -3 4 -7 14 -8 24 -2 9 -7 18
-12 20 -6 2 -8 12 -5 22 3 12 0 20 -8 20 -7 0 -10 3 -6 6 3 4 0 19 -8 34 -11
22 -12 30 -2 33 7 3 4 6 -6 6 -10 1 -16 5 -12 10 3 5 1 12 -5 16 -6 4 -8 10
-5 15 3 5 -2 16 -11 24 -8 9 -12 16 -8 16 3 0 1 7 -6 15 -7 8 -9 15 -6 15 4 0
-2 10 -14 22 -11 12 -20 30 -20 40 0 10 -5 18 -11 18 -6 0 -9 6 -6 14 3 8 -1
17 -9 20 -8 3 -14 12 -14 21 0 8 -5 15 -11 15 -5 0 -7 5 -4 10 3 6 1 10 -5 10
-6 0 -8 5 -5 10 3 6 1 10 -4 10 -6 0 -11 7 -11 16 0 8 -4 12 -10 9 -5 -3 -10
1 -10 11 0 9 -10 25 -22 35 -11 11 -15 19 -8 19 7 0 3 8 -8 18 -12 9 -22 23
-24 31 -2 7 -20 31 -41 52 -21 22 -35 39 -31 39 4 0 -7 14 -24 30 -18 17 -29
30 -26 30 3 0 -8 13 -25 29 -17 16 -31 34 -31 41 0 6 -4 9 -9 5 -5 -3 -12 4
-16 15 -3 11 -13 20 -21 20 -8 0 -14 7 -14 17 0 9 -2 14 -5 11 -8 -7 -81 61
-78 73 2 5 -8 11 -22 15 -14 3 -22 10 -19 15 3 5 0 9 -7 9 -6 0 -22 11 -35 26
-13 14 -24 23 -24 20 0 -4 -9 3 -20 14 -11 11 -26 20 -33 20 -7 0 -19 9 -27
20 -8 11 -20 20 -27 20 -7 0 -13 5 -13 10 0 6 -7 10 -15 10 -8 0 -15 5 -15 10
0 6 -5 10 -12 10 -6 0 -25 10 -42 23 -33 25 -66 41 -78 39 -5 -1 -8 3 -8 8 0
6 -7 10 -15 10 -8 0 -15 5 -15 10 0 6 -6 10 -13 10 -18 0 -67 24 -67 33 0 4
-9 7 -19 7 -11 0 -23 5 -26 10 -4 6 -11 8 -16 5 -5 -4 -9 -1 -9 5 0 7 -7 10
-15 6 -8 -3 -15 -2 -15 2 0 10 -51 32 -61 26 -5 -3 -9 0 -9 6 0 6 -4 8 -10 5
-5 -3 -10 -2 -10 3 0 5 -7 9 -15 10 -8 1 -22 3 -30 4 -8 1 -15 4 -15 8 0 4 -7
7 -15 8 -8 1 -22 3 -30 4 -8 1 -15 5 -15 9 0 4 -7 10 -16 13 -10 4 -13 2 -8
-7 6 -9 5 -9 -8 0 -8 7 -18 10 -21 7 -3 -3 -12 -2 -19 2 -7 5 -19 10 -25 11
-30 7 -48 12 -48 13 0 1 -13 3 -30 6 -51 7 -60 9 -72 17 -6 4 -15 2 -19 -4 -4
-8 -9 -8 -13 -1 -4 6 -32 12 -64 14 -31 2 -57 6 -57 10 0 5 -5 8 -11 8 -5 0
-7 -5 -3 -12 5 -8 3 -8 -7 -2 -21 13 -391 14 -408 0 -12 -9 -13 -8 -6 4 8 13
7 13 -8 1 -13 -10 -17 -10 -17 -1 0 9 -4 9 -12 3 -7 -6 -23 -9 -35 -8 -13 1
-23 -1 -23 -5 0 -4 -14 -4 -31 -2 -20 3 -30 1 -26 -5 4 -6 -5 -11 -21 -11 -52
1 -92 -6 -92 -16 0 -5 -3 -7 -6 -3 -3 3 -26 0 -50 -8 -24 -7 -44 -11 -44 -10
0 2 -16 -3 -35 -11 -20 -8 -40 -12 -45 -9 -6 4 -10 1 -10 -6 0 -7 -3 -10 -6
-6 -4 3 -19 0 -35 -9 -16 -8 -32 -14 -36 -14 -19 0 -43 -12 -38 -19 2 -5 -7
-7 -20 -5 -14 1 -25 -2 -25 -7 0 -5 -3 -8 -7 -7 -5 1 -18 -3 -30 -10 -13 -7
-23 -9 -23 -5 0 4 -4 3 -8 -2 -4 -6 -35 -24 -69 -40 -35 -16 -63 -33 -63 -37
0 -4 -8 -8 -19 -8 -10 0 -24 -7 -31 -15 -7 -8 -18 -15 -26 -15 -7 0 -18 -8
-23 -17 -6 -10 -11 -14 -11 -10 0 9 -60 -30 -71 -46 -3 -5 -10 -9 -15 -10 -5
-1 -8 -6 -6 -10 1 -5 -2 -6 -7 -3 -5 4 -12 2 -16 -4 -4 -6 -11 -8 -16 -5 -5 4
-9 -1 -9 -9 0 -9 -5 -16 -11 -16 -6 0 -18 -8 -27 -17 -16 -16 -17 -15 -20 0
-2 10 -8 15 -12 12 -5 -3 -18 3 -30 15 -11 11 -24 20 -30 20 -5 0 -10 5 -10
10 0 6 -7 10 -15 10 -8 0 -15 5 -15 10 0 6 -7 10 -15 10 -8 0 -15 5 -15 10 0
6 -9 10 -20 10 -11 0 -20 4 -20 9 0 10 -10 16 -107 65 -32 16 -67 36 -77 45
-15 13 -18 13 -11 1 5 -8 -4 -5 -19 8 -16 12 -32 19 -37 16 -5 -3 -9 -1 -9 4
0 8 -35 23 -43 19 -2 -1 -15 6 -30 16 -15 9 -27 15 -27 11 0 -3 -11 1 -25 10
-13 9 -33 16 -43 16 -10 0 -22 3 -26 7 -7 7 -18 11 -51 15 -11 2 -23 7 -26 11
-3 4 -19 9 -35 10 -16 1 -31 5 -34 9 -3 4 -17 8 -30 10 -14 2 -31 7 -39 12
-11 7 -12 6 -6 -5 7 -12 6 -12 -7 -1 -9 7 -30 14 -47 14 -17 1 -31 4 -31 7 0
3 -10 7 -22 7 -87 6 -118 9 -118 15 0 9 -63 5 -79 -5 -9 -6 -12 -5 -8 1 5 7
-19 10 -68 9 -41 0 -76 3 -78 7 -1 5 -5 5 -9 2z m-1582 -1494 c-1 -42 -11 -46
-12 -5 -1 19 2 34 5 34 4 0 7 -13 7 -29z"/>
</g>
</svg>
